<mxfile host="app.diagrams.net" modified="2023-11-14T06:47:59.814Z" agent="Mozilla/5.0 (Windows NT 10.0; Win64; x64) AppleWebKit/537.36 (KHTML, like Gecko) Chrome/95.0.4638.69 Safari/537.36" etag="zFrZ13P7yyCdyiE8oOtI" version="22.1.0" type="github">
  <diagram name="第 1 页" id="-iE-JKF09oW2JGQrHcPB">
    <mxGraphModel dx="861" dy="504" grid="1" gridSize="10" guides="1" tooltips="1" connect="1" arrows="1" fold="1" page="1" pageScale="1" pageWidth="1169" pageHeight="827" math="0" shadow="0">
      <root>
        <mxCell id="0" />
        <mxCell id="1" parent="0" />
        <mxCell id="l2NXYD5OFPgQxAvPh7Ib-8" style="edgeStyle=orthogonalEdgeStyle;rounded=0;orthogonalLoop=1;jettySize=auto;html=1;exitX=0.5;exitY=1;exitDx=0;exitDy=0;" edge="1" parent="1" source="l2NXYD5OFPgQxAvPh7Ib-1" target="l2NXYD5OFPgQxAvPh7Ib-2">
          <mxGeometry relative="1" as="geometry" />
        </mxCell>
        <mxCell id="l2NXYD5OFPgQxAvPh7Ib-1" value="销售退货单" style="rounded=0;whiteSpace=wrap;html=1;" vertex="1" parent="1">
          <mxGeometry x="340" y="40" width="120" height="40" as="geometry" />
        </mxCell>
        <mxCell id="l2NXYD5OFPgQxAvPh7Ib-6" style="edgeStyle=orthogonalEdgeStyle;rounded=0;orthogonalLoop=1;jettySize=auto;html=1;exitX=0;exitY=0.5;exitDx=0;exitDy=0;entryX=1;entryY=0.5;entryDx=0;entryDy=0;" edge="1" parent="1" source="l2NXYD5OFPgQxAvPh7Ib-2" target="l2NXYD5OFPgQxAvPh7Ib-3">
          <mxGeometry relative="1" as="geometry" />
        </mxCell>
        <mxCell id="l2NXYD5OFPgQxAvPh7Ib-7" style="edgeStyle=orthogonalEdgeStyle;rounded=0;orthogonalLoop=1;jettySize=auto;html=1;exitX=1;exitY=0.5;exitDx=0;exitDy=0;entryX=0;entryY=0.5;entryDx=0;entryDy=0;" edge="1" parent="1" source="l2NXYD5OFPgQxAvPh7Ib-2" target="l2NXYD5OFPgQxAvPh7Ib-5">
          <mxGeometry relative="1" as="geometry" />
        </mxCell>
        <mxCell id="l2NXYD5OFPgQxAvPh7Ib-2" value="退货类型" style="rhombus;whiteSpace=wrap;html=1;" vertex="1" parent="1">
          <mxGeometry x="360" y="120" width="80" height="80" as="geometry" />
        </mxCell>
        <mxCell id="l2NXYD5OFPgQxAvPh7Ib-10" style="edgeStyle=orthogonalEdgeStyle;rounded=0;orthogonalLoop=1;jettySize=auto;html=1;exitX=0.5;exitY=1;exitDx=0;exitDy=0;entryX=0.5;entryY=0;entryDx=0;entryDy=0;" edge="1" parent="1" source="l2NXYD5OFPgQxAvPh7Ib-3" target="l2NXYD5OFPgQxAvPh7Ib-9">
          <mxGeometry relative="1" as="geometry" />
        </mxCell>
        <mxCell id="l2NXYD5OFPgQxAvPh7Ib-11" value="扣减" style="edgeLabel;html=1;align=center;verticalAlign=middle;resizable=0;points=[];" vertex="1" connectable="0" parent="l2NXYD5OFPgQxAvPh7Ib-10">
          <mxGeometry x="-0.1581" y="-2" relative="1" as="geometry">
            <mxPoint as="offset" />
          </mxGeometry>
        </mxCell>
        <mxCell id="l2NXYD5OFPgQxAvPh7Ib-3" value="退扣" style="rounded=0;whiteSpace=wrap;html=1;" vertex="1" parent="1">
          <mxGeometry x="210" y="140" width="120" height="40" as="geometry" />
        </mxCell>
        <mxCell id="l2NXYD5OFPgQxAvPh7Ib-5" value="退补" style="rounded=0;whiteSpace=wrap;html=1;" vertex="1" parent="1">
          <mxGeometry x="465" y="140" width="120" height="40" as="geometry" />
        </mxCell>
        <mxCell id="l2NXYD5OFPgQxAvPh7Ib-9" value="母单数量" style="rounded=0;whiteSpace=wrap;html=1;" vertex="1" parent="1">
          <mxGeometry x="210" y="250" width="120" height="40" as="geometry" />
        </mxCell>
      </root>
    </mxGraphModel>
  </diagram>
</mxfile>
